<?xml version="1.0" encoding="utf-8"?>
<!-- Svg Vector Icons : http://www.onlinewebfonts.com/icon -->
<!DOCTYPE svg PUBLIC "-//W3C//DTD SVG 1.1//EN" "http://www.w3.org/Graphics/SVG/1.1/DTD/svg11.dtd">
<svg version="1.1" xmlns="http://www.w3.org/2000/svg" xmlns:xlink="http://www.w3.org/1999/xlink" x="0px" y="0px" viewBox="0 0 1000 1000" enable-background="new 0 0 1000 1000" xml:space="preserve">
<metadata> Svg Vector Icons : http://www.onlinewebfonts.com/icon </metadata>
<g><path d="M500,990.1c-290,0-490-219.4-490-490C10,229.3,229.4,9.9,500,9.9c270.7,0,490,219.4,490,490.1C990,770.7,790,990.1,500,990.1L500,990.1z M500,73.4c-235.6,0-426.5,191-426.5,426.6c0,110.2,42.1,210.3,110.7,286c61.8-29.9,39.1-5,119.9-38.3c82.7-34,102.3-45.9,102.3-45.9l0.8-78.4c0,0-31-23.5-40.5-97.3c-19.4,5.6-25.8-22.6-27-40.5c-1-17.3-11.2-71.4,12.4-66.5c-4.8-36.1-8.3-68.6-6.6-85.9c5.9-60.5,64.7-123.8,155.2-128.4c106.5,4.6,148.7,67.8,154.6,128.4c1.7,17.3-2.1,49.9-6.9,85.9c23.6-4.8,13.4,49.2,12.2,66.5c-1,17.9-7.6,46-26.9,40.4c-9.7,73.8-40.7,97.1-40.7,97.1l0.7,78c0,0,19.6,11,102.3,45.1c80.8,33.3,58.1,9.9,119.9,39.8c68.6-75.7,110.7-175.8,110.7-286C926.6,264.4,735.6,73.4,500,73.4L500,73.4z"/></g>
</svg>