<?xml version="1.0" encoding="utf-8"?>
<!-- Svg Vector Icons : http://www.onlinewebfonts.com/icon -->
<!DOCTYPE svg PUBLIC "-//W3C//DTD SVG 1.1//EN" "http://www.w3.org/Graphics/SVG/1.1/DTD/svg11.dtd">
<svg version="1.1" xmlns="http://www.w3.org/2000/svg" xmlns:xlink="http://www.w3.org/1999/xlink" x="0px" y="0px" viewBox="0 0 1000 1000" enable-background="new 0 0 1000 1000" xml:space="preserve">
<metadata> Svg Vector Icons : http://www.onlinewebfonts.com/icon </metadata>
<g><path d="M874.4,430.7L682,623.1c-45.2,45.2-105.3,70.6-169.6,71.7c-64,1.1-124.8-22.1-171.4-65.4l90-96.8c21.4,19.9,49.6,30.6,79.2,30.1c29.7-0.6,57.5-12.2,78.2-32.9l193.9-193.9c21.3-21.3,33-49.8,33-80.2c0-30.4-11.7-58.9-33-80.2c-21.4-21.3-49.8-33.1-80.2-33.1c-30.4,0-58.9,11.7-80.2,33.1l-35.5,35.5c-25.8,25.8-67.6,25.8-93.5,0l0,0c-25.8-25.8-25.8-67.6,0-93.5l35.5-35.5c95.8-95.8,251.7-95.7,347.5,0.1C971.5,177.3,969.9,335.2,874.4,430.7z"/><path d="M508,883.7L474,917.6c-95.5,95.5-253.3,97.1-348.9,1.5c-95.8-95.7-96-251.7-0.1-347.5l193.9-193.9c45.2-45.2,105.3-70.6,169.6-71.7c64-1.1,124.8,22.1,171.4,65.4l-90,96.8c-21.4-19.9-49.6-30.6-79.2-30.1c-29.7,0.6-57.5,12.2-78.2,32.9L218.6,665.1c-21.3,21.3-33.1,49.8-33.1,80.2c0,30.4,11.7,58.9,33.1,80.2c21.4,21.3,49.8,33.1,80.2,33.1c30.4,0,58.9-11.7,80.2-33.1l35.5-35.5c25.8-25.8,67.6-25.8,93.5,0l0,0C533.9,815.9,533.9,857.8,508,883.7z"/></g>
</svg>